<svg width="181" height="22" viewBox="0 0 181 22" fill="none" xmlns="http://www.w3.org/2000/svg">
<path d="M0.96 21H4.334V13.958H9.122L12.538 21H16.36L12.636 13.356C13.784 12.8427 14.638 12.0633 15.198 11.018C15.758 9.97267 16.038 8.76867 16.038 7.406C16.038 5.73533 15.618 4.312 14.778 3.136C13.9473 1.95067 12.6547 1.22267 10.9 0.951999C10.6387 0.905333 10.354 0.877333 10.046 0.867999C9.738 0.849332 9.486 0.839999 9.29 0.839999H0.96V21ZM4.334 10.808V4.004H9.15C9.33667 4.004 9.54667 4.01333 9.78 4.032C10.0133 4.05067 10.228 4.08333 10.424 4.13C10.984 4.27 11.4227 4.522 11.74 4.886C12.0667 5.24067 12.2953 5.642 12.426 6.09C12.566 6.538 12.636 6.97667 12.636 7.406C12.636 7.83533 12.566 8.274 12.426 8.722C12.2953 9.17 12.0667 9.57133 11.74 9.926C11.4227 10.2807 10.984 10.528 10.424 10.668C10.228 10.724 10.0133 10.7613 9.78 10.78C9.54667 10.7987 9.33667 10.808 9.15 10.808H4.334ZM23.6724 21.42C24.8764 21.42 25.8984 21.224 26.7384 20.832C27.5877 20.4307 28.3344 19.81 28.9784 18.97V21H31.9324V11.718C31.9324 11.0647 31.9044 10.4627 31.8484 9.912C31.7924 9.352 31.629 8.806 31.3584 8.274C30.8637 7.27533 30.103 6.55667 29.0764 6.118C28.059 5.67933 26.8784 5.46 25.5344 5.46C23.761 5.46 22.347 5.84733 21.2924 6.622C20.2377 7.39667 19.5237 8.42333 19.1504 9.702L22.2304 10.668C22.4824 9.89333 22.9257 9.34733 23.5604 9.03C24.195 8.71267 24.853 8.554 25.5344 8.554C26.561 8.554 27.317 8.764 27.8024 9.184C28.2877 9.59467 28.563 10.234 28.6284 11.102C27.303 11.298 26.071 11.4893 24.9324 11.676C23.803 11.8533 22.8417 12.0727 22.0484 12.334C20.8537 12.7447 19.981 13.328 19.4304 14.084C18.8797 14.8307 18.6044 15.7547 18.6044 16.856C18.6044 17.6867 18.7957 18.4473 19.1784 19.138C19.5704 19.8287 20.1444 20.384 20.9004 20.804C21.6564 21.2147 22.5804 21.42 23.6724 21.42ZM24.3444 18.732C23.551 18.732 22.9444 18.55 22.5244 18.186C22.1137 17.822 21.9084 17.3647 21.9084 16.814C21.9084 16.3193 22.067 15.918 22.3844 15.61C22.711 15.302 23.1637 15.0407 23.7424 14.826C24.2744 14.6487 24.9137 14.4947 25.6604 14.364C26.407 14.224 27.3824 14.0607 28.5864 13.874C28.577 14.2287 28.5537 14.6253 28.5164 15.064C28.479 15.4933 28.3904 15.8807 28.2504 16.226C28.1384 16.5713 27.919 16.94 27.5924 17.332C27.275 17.724 26.8457 18.0553 26.3044 18.326C25.763 18.5967 25.1097 18.732 24.3444 18.732ZM35.8572 3.584H39.2312V0.49H35.8572V3.584ZM35.8572 21H39.2312V5.88H35.8572V21ZM49.2628 21.42C51.2135 21.42 52.7395 20.986 53.8408 20.118C54.9515 19.25 55.5068 18.0553 55.5068 16.534C55.5068 15.358 55.1335 14.434 54.3868 13.762C53.6495 13.09 52.3755 12.5207 50.5648 12.054C49.3888 11.7553 48.5022 11.5033 47.9048 11.298C47.3168 11.0927 46.9248 10.8873 46.7288 10.682C46.5328 10.4767 46.4348 10.2293 46.4348 9.94C46.4348 9.436 46.6775 9.044 47.1628 8.764C47.6482 8.47467 48.2875 8.34867 49.0808 8.386C49.9022 8.43267 50.5602 8.64267 51.0548 9.016C51.5588 9.38933 51.8575 9.898 51.9508 10.542L55.3948 9.926C55.2082 8.56333 54.5408 7.48067 53.3928 6.678C52.2448 5.866 50.7888 5.46 49.0248 5.46C47.2235 5.46 45.7815 5.88 44.6988 6.72C43.6162 7.56 43.0748 8.68933 43.0748 10.108C43.0748 11.2373 43.4528 12.1287 44.2088 12.782C44.9742 13.4353 46.3042 14.0093 48.1988 14.504C49.3375 14.8027 50.1775 15.0547 50.7188 15.26C51.2695 15.456 51.6288 15.6567 51.7968 15.862C51.9648 16.0673 52.0488 16.3427 52.0488 16.688C52.0488 17.248 51.8248 17.6913 51.3768 18.018C50.9288 18.3353 50.3035 18.494 49.5008 18.494C48.5768 18.494 47.8068 18.2793 47.1908 17.85C46.5842 17.4207 46.1968 16.8327 46.0288 16.086L42.5848 16.618C42.8368 18.1393 43.5462 19.32 44.7128 20.16C45.8795 21 47.3962 21.42 49.2628 21.42ZM65.4473 21.42C66.9033 21.42 68.2333 21.0467 69.4373 20.3C70.6506 19.544 71.5466 18.48 72.1253 17.108L68.7933 16.1C68.1213 17.5373 66.9406 18.256 65.2513 18.256C64.1033 18.256 63.1979 17.9247 62.5353 17.262C61.8726 16.59 61.4759 15.6287 61.3453 14.378H72.2933C72.4239 12.558 72.2233 10.9807 71.6913 9.646C71.1593 8.31133 70.3426 7.28 69.2413 6.552C68.1493 5.824 66.8193 5.46 65.2513 5.46C63.7673 5.46 62.4606 5.796 61.3313 6.468C60.2019 7.13067 59.3199 8.07333 58.6853 9.296C58.0506 10.5187 57.7333 11.956 57.7333 13.608C57.7333 15.1387 58.0553 16.492 58.6993 17.668C59.3526 18.844 60.2579 19.7633 61.4153 20.426C62.5726 21.0887 63.9166 21.42 65.4473 21.42ZM65.3913 8.414C66.4366 8.414 67.2393 8.68933 67.7993 9.24C68.3686 9.78133 68.7279 10.6447 68.8773 11.83H61.4293C61.8306 9.55267 63.1513 8.414 65.3913 8.414ZM89.5485 21.42C91.8632 21.42 93.7952 20.8413 95.3445 19.684C96.9032 18.5173 97.9952 16.9493 98.6205 14.98L95.2185 14.042C94.8265 15.3487 94.1592 16.3753 93.2165 17.122C92.2738 17.8687 91.0512 18.242 89.5485 18.242C87.5232 18.242 85.9972 17.5747 84.9705 16.24C83.9532 14.896 83.4445 13.1227 83.4445 10.92C83.4538 8.71733 83.9672 6.94867 84.9845 5.614C86.0018 4.27 87.5232 3.598 89.5485 3.598C91.0512 3.598 92.2738 3.97133 93.2165 4.718C94.1592 5.46467 94.8265 6.49133 95.2185 7.798L98.6205 6.86C97.9952 4.88133 96.9032 3.31333 95.3445 2.156C93.7952 0.998666 91.8632 0.42 89.5485 0.42C87.5418 0.42 85.8152 0.863333 84.3685 1.75C82.9312 2.62733 81.8252 3.85467 81.0505 5.432C80.2852 7 79.9025 8.82933 79.9025 10.92C79.9025 13.0013 80.2852 14.8307 81.0505 16.408C81.8252 17.9853 82.9312 19.2173 84.3685 20.104C85.8152 20.9813 87.5418 21.42 89.5485 21.42ZM107.364 21.434C108.456 21.434 109.413 21.2473 110.234 20.874C111.065 20.4913 111.756 19.9733 112.306 19.32V21H115.288V5.88H111.9V13.65C111.9 14.8727 111.723 15.82 111.368 16.492C111.023 17.1547 110.58 17.6167 110.038 17.878C109.497 18.13 108.937 18.256 108.358 18.256C107.556 18.256 106.916 18.0833 106.44 17.738C105.964 17.3833 105.61 16.94 105.376 16.408C105.152 15.8667 105.003 15.3067 104.928 14.728C104.863 14.1493 104.83 13.6267 104.83 13.16V5.88H101.414V14.322C101.414 14.6767 101.442 15.148 101.498 15.736C101.564 16.324 101.699 16.9447 101.904 17.598C102.11 18.2513 102.427 18.872 102.856 19.46C103.286 20.0387 103.864 20.5147 104.592 20.888C105.33 21.252 106.254 21.434 107.364 21.434ZM119.222 21H122.61V13.314C122.61 12.4367 122.768 11.6573 123.086 10.976C123.412 10.2947 123.921 9.76733 124.612 9.394C125.078 9.12333 125.601 8.96467 126.18 8.918C126.758 8.862 127.276 8.89933 127.734 9.03V5.88C127.052 5.77733 126.352 5.79133 125.634 5.922C124.915 6.04333 124.276 6.29533 123.716 6.678C123.398 6.874 123.114 7.112 122.862 7.392C122.61 7.66267 122.39 7.966 122.204 8.302V5.88H119.222V21ZM139.267 21V18.172C138.325 18.312 137.485 18.3493 136.747 18.284C136.01 18.2187 135.473 17.906 135.137 17.346C134.96 17.0567 134.862 16.6833 134.843 16.226C134.834 15.7593 134.829 15.2273 134.829 14.63V8.526H139.267V5.88H134.829V1.68H131.469V5.88H128.725V8.526H131.469V14.826C131.469 15.694 131.479 16.4687 131.497 17.15C131.516 17.822 131.698 18.4847 132.043 19.138C132.435 19.8567 133.009 20.384 133.765 20.72C134.521 21.0467 135.375 21.2193 136.327 21.238C137.289 21.266 138.269 21.1867 139.267 21ZM146.747 21.42C147.951 21.42 148.973 21.224 149.813 20.832C150.662 20.4307 151.409 19.81 152.053 18.97V21H155.007V11.718C155.007 11.0647 154.979 10.4627 154.923 9.912C154.867 9.352 154.703 8.806 154.433 8.274C153.938 7.27533 153.177 6.55667 152.151 6.118C151.133 5.67933 149.953 5.46 148.609 5.46C146.835 5.46 145.421 5.84733 144.367 6.622C143.312 7.39667 142.598 8.42333 142.225 9.702L145.305 10.668C145.557 9.89333 146 9.34733 146.635 9.03C147.269 8.71267 147.927 8.554 148.609 8.554C149.635 8.554 150.391 8.764 150.877 9.184C151.362 9.59467 151.637 10.234 151.703 11.102C150.377 11.298 149.145 11.4893 148.007 11.676C146.877 11.8533 145.916 12.0727 145.123 12.334C143.928 12.7447 143.055 13.328 142.505 14.084C141.954 14.8307 141.679 15.7547 141.679 16.856C141.679 17.6867 141.87 18.4473 142.253 19.138C142.645 19.8287 143.219 20.384 143.975 20.804C144.731 21.2147 145.655 21.42 146.747 21.42ZM147.419 18.732C146.625 18.732 146.019 18.55 145.599 18.186C145.188 17.822 144.983 17.3647 144.983 16.814C144.983 16.3193 145.141 15.918 145.459 15.61C145.785 15.302 146.238 15.0407 146.817 14.826C147.349 14.6487 147.988 14.4947 148.735 14.364C149.481 14.224 150.457 14.0607 151.661 13.874C151.651 14.2287 151.628 14.6253 151.591 15.064C151.553 15.4933 151.465 15.8807 151.325 16.226C151.213 16.5713 150.993 16.94 150.667 17.332C150.349 17.724 149.92 18.0553 149.379 18.326C148.837 18.5967 148.184 18.732 147.419 18.732ZM158.931 3.584H162.305V0.49H158.931V3.584ZM158.931 21H162.305V5.88H158.931V21ZM166.471 21H169.887V13.23C169.887 12.0073 170.06 11.0647 170.405 10.402C170.76 9.73 171.208 9.268 171.749 9.016C172.3 8.75467 172.86 8.624 173.429 8.624C174.232 8.624 174.871 8.80133 175.347 9.156C175.823 9.50133 176.173 9.94467 176.397 10.486C176.63 11.018 176.78 11.5733 176.845 12.152C176.92 12.7307 176.957 13.2533 176.957 13.72V21H180.373V12.558C180.373 12.2033 180.34 11.732 180.275 11.144C180.219 10.556 180.088 9.93533 179.883 9.282C179.678 8.62867 179.36 8.01267 178.931 7.434C178.502 6.846 177.918 6.37 177.181 6.006C176.453 5.63267 175.534 5.446 174.423 5.446C173.331 5.446 172.37 5.63733 171.539 6.02C170.718 6.39333 170.032 6.90667 169.481 7.56V5.88H166.471V21Z" fill="#1E83DF"/>
</svg>
