<svg width="185" height="72" viewBox="0 0 185 72" fill="none" xmlns="http://www.w3.org/2000/svg">
<path d="M2.96 47H6.334V39.958H11.122L14.538 47H18.36L14.636 39.356C15.784 38.8427 16.638 38.0633 17.198 37.018C17.758 35.9727 18.038 34.7687 18.038 33.406C18.038 31.7353 17.618 30.312 16.778 29.136C15.9473 27.9507 14.6547 27.2227 12.9 26.952C12.6387 26.9053 12.354 26.8773 12.046 26.868C11.738 26.8493 11.486 26.84 11.29 26.84H2.96V47ZM6.334 36.808V30.004H11.15C11.3367 30.004 11.5467 30.0133 11.78 30.032C12.0133 30.0507 12.228 30.0833 12.424 30.13C12.984 30.27 13.4227 30.522 13.74 30.886C14.0667 31.2407 14.2953 31.642 14.426 32.09C14.566 32.538 14.636 32.9767 14.636 33.406C14.636 33.8353 14.566 34.274 14.426 34.722C14.2953 35.17 14.0667 35.5713 13.74 35.926C13.4227 36.2807 12.984 36.528 12.424 36.668C12.228 36.724 12.0133 36.7613 11.78 36.78C11.5467 36.7987 11.3367 36.808 11.15 36.808H6.334ZM25.6724 47.42C26.8764 47.42 27.8984 47.224 28.7384 46.832C29.5877 46.4307 30.3344 45.81 30.9784 44.97V47H33.9324V37.718C33.9324 37.0647 33.9044 36.4627 33.8484 35.912C33.7924 35.352 33.629 34.806 33.3584 34.274C32.8637 33.2753 32.103 32.5567 31.0764 32.118C30.059 31.6793 28.8784 31.46 27.5344 31.46C25.761 31.46 24.347 31.8473 23.2924 32.622C22.2377 33.3967 21.5237 34.4233 21.1504 35.702L24.2304 36.668C24.4824 35.8933 24.9257 35.3473 25.5604 35.03C26.195 34.7127 26.853 34.554 27.5344 34.554C28.561 34.554 29.317 34.764 29.8024 35.184C30.2877 35.5947 30.563 36.234 30.6284 37.102C29.303 37.298 28.071 37.4893 26.9324 37.676C25.803 37.8533 24.8417 38.0727 24.0484 38.334C22.8537 38.7447 21.981 39.328 21.4304 40.084C20.8797 40.8307 20.6044 41.7547 20.6044 42.856C20.6044 43.6867 20.7957 44.4473 21.1784 45.138C21.5704 45.8287 22.1444 46.384 22.9004 46.804C23.6564 47.2147 24.5804 47.42 25.6724 47.42ZM26.3444 44.732C25.551 44.732 24.9444 44.55 24.5244 44.186C24.1137 43.822 23.9084 43.3647 23.9084 42.814C23.9084 42.3193 24.067 41.918 24.3844 41.61C24.711 41.302 25.1637 41.0407 25.7424 40.826C26.2744 40.6487 26.9137 40.4947 27.6604 40.364C28.407 40.224 29.3824 40.0607 30.5864 39.874C30.577 40.2287 30.5537 40.6253 30.5164 41.064C30.479 41.4933 30.3904 41.8807 30.2504 42.226C30.1384 42.5713 29.919 42.94 29.5924 43.332C29.275 43.724 28.8457 44.0553 28.3044 44.326C27.763 44.5967 27.1097 44.732 26.3444 44.732ZM37.8572 29.584H41.2312V26.49H37.8572V29.584ZM37.8572 47H41.2312V31.88H37.8572V47ZM51.2628 47.42C53.2135 47.42 54.7395 46.986 55.8408 46.118C56.9515 45.25 57.5068 44.0553 57.5068 42.534C57.5068 41.358 57.1335 40.434 56.3868 39.762C55.6495 39.09 54.3755 38.5207 52.5648 38.054C51.3888 37.7553 50.5022 37.5033 49.9048 37.298C49.3168 37.0927 48.9248 36.8873 48.7288 36.682C48.5328 36.4767 48.4348 36.2293 48.4348 35.94C48.4348 35.436 48.6775 35.044 49.1628 34.764C49.6482 34.4747 50.2875 34.3487 51.0808 34.386C51.9022 34.4327 52.5602 34.6427 53.0548 35.016C53.5588 35.3893 53.8575 35.898 53.9508 36.542L57.3948 35.926C57.2082 34.5633 56.5408 33.4807 55.3928 32.678C54.2448 31.866 52.7888 31.46 51.0248 31.46C49.2235 31.46 47.7815 31.88 46.6988 32.72C45.6162 33.56 45.0748 34.6893 45.0748 36.108C45.0748 37.2373 45.4528 38.1287 46.2088 38.782C46.9742 39.4353 48.3042 40.0093 50.1988 40.504C51.3375 40.8027 52.1775 41.0547 52.7188 41.26C53.2695 41.456 53.6288 41.6567 53.7968 41.862C53.9648 42.0673 54.0488 42.3427 54.0488 42.688C54.0488 43.248 53.8248 43.6913 53.3768 44.018C52.9288 44.3353 52.3035 44.494 51.5008 44.494C50.5768 44.494 49.8068 44.2793 49.1908 43.85C48.5842 43.4207 48.1968 42.8327 48.0288 42.086L44.5848 42.618C44.8368 44.1393 45.5462 45.32 46.7128 46.16C47.8795 47 49.3962 47.42 51.2628 47.42ZM67.4473 47.42C68.9033 47.42 70.2333 47.0467 71.4373 46.3C72.6506 45.544 73.5466 44.48 74.1253 43.108L70.7933 42.1C70.1213 43.5373 68.9406 44.256 67.2513 44.256C66.1033 44.256 65.1979 43.9247 64.5353 43.262C63.8726 42.59 63.4759 41.6287 63.3453 40.378H74.2933C74.4239 38.558 74.2233 36.9807 73.6913 35.646C73.1593 34.3113 72.3426 33.28 71.2413 32.552C70.1493 31.824 68.8193 31.46 67.2513 31.46C65.7673 31.46 64.4606 31.796 63.3313 32.468C62.2019 33.1307 61.3199 34.0733 60.6853 35.296C60.0506 36.5187 59.7333 37.956 59.7333 39.608C59.7333 41.1387 60.0553 42.492 60.6993 43.668C61.3526 44.844 62.2579 45.7633 63.4153 46.426C64.5726 47.0887 65.9166 47.42 67.4473 47.42ZM67.3913 34.414C68.4366 34.414 69.2393 34.6893 69.7993 35.24C70.3686 35.7813 70.7279 36.6447 70.8773 37.83H63.4293C63.8306 35.5527 65.1513 34.414 67.3913 34.414ZM91.5485 47.42C93.8632 47.42 95.7952 46.8413 97.3445 45.684C98.9032 44.5173 99.9952 42.9493 100.621 40.98L97.2185 40.042C96.8265 41.3487 96.1592 42.3753 95.2165 43.122C94.2738 43.8687 93.0512 44.242 91.5485 44.242C89.5232 44.242 87.9972 43.5747 86.9705 42.24C85.9532 40.896 85.4445 39.1227 85.4445 36.92C85.4538 34.7173 85.9672 32.9487 86.9845 31.614C88.0018 30.27 89.5232 29.598 91.5485 29.598C93.0512 29.598 94.2738 29.9713 95.2165 30.718C96.1592 31.4647 96.8265 32.4913 97.2185 33.798L100.621 32.86C99.9952 30.8813 98.9032 29.3133 97.3445 28.156C95.7952 26.9987 93.8632 26.42 91.5485 26.42C89.5418 26.42 87.8152 26.8633 86.3685 27.75C84.9312 28.6273 83.8252 29.8547 83.0505 31.432C82.2852 33 81.9025 34.8293 81.9025 36.92C81.9025 39.0013 82.2852 40.8307 83.0505 42.408C83.8252 43.9853 84.9312 45.2173 86.3685 46.104C87.8152 46.9813 89.5418 47.42 91.5485 47.42ZM109.364 47.434C110.456 47.434 111.413 47.2473 112.234 46.874C113.065 46.4913 113.756 45.9733 114.306 45.32V47H117.288V31.88H113.9V39.65C113.9 40.8727 113.723 41.82 113.368 42.492C113.023 43.1547 112.58 43.6167 112.038 43.878C111.497 44.13 110.937 44.256 110.358 44.256C109.556 44.256 108.916 44.0833 108.44 43.738C107.964 43.3833 107.61 42.94 107.376 42.408C107.152 41.8667 107.003 41.3067 106.928 40.728C106.863 40.1493 106.83 39.6267 106.83 39.16V31.88H103.414V40.322C103.414 40.6767 103.442 41.148 103.498 41.736C103.564 42.324 103.699 42.9447 103.904 43.598C104.11 44.2513 104.427 44.872 104.856 45.46C105.286 46.0387 105.864 46.5147 106.592 46.888C107.33 47.252 108.254 47.434 109.364 47.434ZM121.222 47H124.61V39.314C124.61 38.4367 124.768 37.6573 125.086 36.976C125.412 36.2947 125.921 35.7673 126.612 35.394C127.078 35.1233 127.601 34.9647 128.18 34.918C128.758 34.862 129.276 34.8993 129.734 35.03V31.88C129.052 31.7773 128.352 31.7913 127.634 31.922C126.915 32.0433 126.276 32.2953 125.716 32.678C125.398 32.874 125.114 33.112 124.862 33.392C124.61 33.6627 124.39 33.966 124.204 34.302V31.88H121.222V47ZM141.267 47V44.172C140.325 44.312 139.485 44.3493 138.747 44.284C138.01 44.2187 137.473 43.906 137.137 43.346C136.96 43.0567 136.862 42.6833 136.843 42.226C136.834 41.7593 136.829 41.2273 136.829 40.63V34.526H141.267V31.88H136.829V27.68H133.469V31.88H130.725V34.526H133.469V40.826C133.469 41.694 133.479 42.4687 133.497 43.15C133.516 43.822 133.698 44.4847 134.043 45.138C134.435 45.8567 135.009 46.384 135.765 46.72C136.521 47.0467 137.375 47.2193 138.327 47.238C139.289 47.266 140.269 47.1867 141.267 47ZM148.747 47.42C149.951 47.42 150.973 47.224 151.813 46.832C152.662 46.4307 153.409 45.81 154.053 44.97V47H157.007V37.718C157.007 37.0647 156.979 36.4627 156.923 35.912C156.867 35.352 156.703 34.806 156.433 34.274C155.938 33.2753 155.177 32.5567 154.151 32.118C153.133 31.6793 151.953 31.46 150.609 31.46C148.835 31.46 147.421 31.8473 146.367 32.622C145.312 33.3967 144.598 34.4233 144.225 35.702L147.305 36.668C147.557 35.8933 148 35.3473 148.635 35.03C149.269 34.7127 149.927 34.554 150.609 34.554C151.635 34.554 152.391 34.764 152.877 35.184C153.362 35.5947 153.637 36.234 153.703 37.102C152.377 37.298 151.145 37.4893 150.007 37.676C148.877 37.8533 147.916 38.0727 147.123 38.334C145.928 38.7447 145.055 39.328 144.505 40.084C143.954 40.8307 143.679 41.7547 143.679 42.856C143.679 43.6867 143.87 44.4473 144.253 45.138C144.645 45.8287 145.219 46.384 145.975 46.804C146.731 47.2147 147.655 47.42 148.747 47.42ZM149.419 44.732C148.625 44.732 148.019 44.55 147.599 44.186C147.188 43.822 146.983 43.3647 146.983 42.814C146.983 42.3193 147.141 41.918 147.459 41.61C147.785 41.302 148.238 41.0407 148.817 40.826C149.349 40.6487 149.988 40.4947 150.735 40.364C151.481 40.224 152.457 40.0607 153.661 39.874C153.651 40.2287 153.628 40.6253 153.591 41.064C153.553 41.4933 153.465 41.8807 153.325 42.226C153.213 42.5713 152.993 42.94 152.667 43.332C152.349 43.724 151.92 44.0553 151.379 44.326C150.837 44.5967 150.184 44.732 149.419 44.732ZM160.931 29.584H164.305V26.49H160.931V29.584ZM160.931 47H164.305V31.88H160.931V47ZM168.471 47H171.887V39.23C171.887 38.0073 172.06 37.0647 172.405 36.402C172.76 35.73 173.208 35.268 173.749 35.016C174.3 34.7547 174.86 34.624 175.429 34.624C176.232 34.624 176.871 34.8013 177.347 35.156C177.823 35.5013 178.173 35.9447 178.397 36.486C178.63 37.018 178.78 37.5733 178.845 38.152C178.92 38.7307 178.957 39.2533 178.957 39.72V47H182.373V38.558C182.373 38.2033 182.34 37.732 182.275 37.144C182.219 36.556 182.088 35.9353 181.883 35.282C181.678 34.6287 181.36 34.0127 180.931 33.434C180.502 32.846 179.918 32.37 179.181 32.006C178.453 31.6327 177.534 31.446 176.423 31.446C175.331 31.446 174.37 31.6373 173.539 32.02C172.718 32.3933 172.032 32.9067 171.481 33.56V31.88H168.471V47Z" fill="#09457B"/>
<line y1="52.5" x2="185" y2="52.5" stroke="#64B5FF" stroke-width="3"/>
</svg>
